<svg width="93" height="96" viewBox="0 0 93 96" fill="none" xmlns="http://www.w3.org/2000/svg">
<path d="M9.30048 82.0996H9.05048V82.1021H5.16016H4.91016V82.3521V94.8097V95.0597H5.16016H6.10501H6.35501V94.8097V89.9055H9.30048C10.198 89.9055 10.9851 89.7532 11.657 89.4391L11.6577 89.4388C12.3277 89.1229 12.8542 88.6752 13.2278 88.0914L13.2281 88.091C13.604 87.5008 13.786 86.7991 13.786 85.9926C13.786 85.1978 13.6037 84.5011 13.2278 83.9137L13.2274 83.913C12.8518 83.3304 12.3258 82.8799 11.6573 82.5662L11.657 82.566C10.9851 82.2519 10.198 82.0996 9.30048 82.0996ZM11.5213 84.1332L11.5217 84.1336C12.0246 84.5627 12.2861 85.1703 12.2861 85.9926C12.2861 86.8166 12.0226 87.4223 11.5213 87.8519C11.0474 88.258 10.3433 88.491 9.37491 88.5173H9.1877H6.35501V83.4678H9.1877C10.2538 83.4678 11.0176 83.7017 11.5213 84.1332Z" fill="#FFFAFF" stroke="#FFFAFF" stroke-width="0.5"/>
<path d="M20.6675 82.3496V82.0996H20.4175H19.4727H19.2227V82.3496V94.8072V95.0572H19.4727H20.4175H20.6675V94.8072V89.1699H27.8818V94.8072V95.0572H28.1318H29.0766H29.3266V94.8072V82.3496V82.0996H29.0766H28.1318H27.8818V82.3496V87.7817H20.6675V82.3496Z" fill="#FFFAFF" stroke="#FFFAFF" stroke-width="0.5"/>
<path d="M45.7154 95.0582H46.0849L45.9475 94.7152L40.955 82.2576L40.8921 82.1006H40.723H39.6077H39.4385L39.3756 82.2576L34.3832 94.7152L34.2457 95.0582H34.6152H35.6177H35.7868L35.8497 94.9013L37.3557 91.15H42.975L44.4809 94.9013L44.5439 95.0582H44.7129H45.7154ZM37.8955 89.7818L40.1598 83.9614L42.4393 89.7818H37.8955Z" fill="#FFFAFF" stroke="#FFFAFF" stroke-width="0.5"/>
<path d="M55.888 82.0996H55.638V82.1021H51.2539H51.0039V82.3521V94.8097V95.0597H51.2539H52.1988H52.4488V94.8097V89.6603H55.7727H55.8048L59.3112 94.9454L59.3854 95.0572H59.5195H60.6348H61.0988L60.8436 94.6697L57.3911 89.4278C58.0129 89.2707 58.5553 89.0064 59.0139 88.6303C59.8246 87.9654 60.2206 87.0391 60.2206 85.88C60.2206 84.7214 59.8277 83.7873 59.0279 83.1029L59.0276 83.1026C58.2339 82.4261 57.1782 82.0996 55.888 82.0996ZM52.4513 88.2721V83.4678H55.8704C56.8432 83.4678 57.5486 83.6903 58.0239 84.096C58.4927 84.4962 58.7407 85.0777 58.7407 85.8775C58.7407 86.6797 58.4928 87.2555 58.0249 87.6505C57.5496 88.0519 56.8438 88.2721 55.8704 88.2721H52.4513Z" fill="#FFFAFF" stroke="#FFFAFF" stroke-width="0.5"/>
<path d="M76.067 95.0582H76.4365L76.2991 94.7152L71.3066 82.2576L71.2437 82.1006H71.0745H69.9593H69.7901L69.7272 82.2576L64.7347 94.7152L64.5973 95.0582H64.9668H65.9693H66.1383L66.2013 94.9013L67.7072 91.15H73.3266L74.8325 94.9013L74.8955 95.0582H75.0645H76.067ZM68.2446 89.7818L70.5089 83.9614L72.7883 89.7818H68.2446Z" fill="#FFFAFF" stroke="#FFFAFF" stroke-width="0.5"/>
<path d="M91.5271 92.1094L91.5269 92.1097C91.0412 93.1055 90.3479 93.8836 89.447 94.4306C88.5441 94.9813 87.4773 95.25 86.2546 95.25C85.0439 95.25 83.98 94.9811 83.0727 94.4308L91.5271 92.1094ZM91.5271 92.1094C92.0133 91.11 92.2515 89.935 92.2515 88.5823C92.2515 87.2299 92.0133 86.0522 91.527 85.0551L91.5271 92.1094ZM80.9822 85.0552L80.9824 85.0549C81.4683 84.0586 82.1644 83.2806 83.0727 82.7313C83.9823 82.1812 85.0462 81.9121 86.2546 81.9121C87.4775 81.9121 88.5444 82.1809 89.4475 82.7318C90.3477 83.281 91.0411 84.0563 91.5269 85.0549L80.9822 85.0552ZM80.9822 85.0552C80.496 86.0546 80.2578 87.2297 80.2578 88.5823C80.2578 89.9348 80.496 91.1125 80.9824 92.1097C81.4684 93.1062 82.1645 93.8815 83.0724 94.4306L80.9822 85.0552ZM82.3029 91.4357L82.3028 91.4355C81.931 90.648 81.7403 89.6979 81.7403 88.5798C81.7403 87.4644 81.931 86.5141 82.3029 85.7239C82.6754 84.9325 83.1962 84.3327 83.864 83.9125C84.5298 83.4935 85.3241 83.2803 86.2546 83.2803C87.201 83.2803 87.9971 83.4939 88.6543 83.9118C89.315 84.3319 89.8336 84.9319 90.2064 85.7239L90.2065 85.7241C90.5783 86.5116 90.769 87.4617 90.769 88.5798C90.769 89.6953 90.5783 90.6455 90.2064 91.4357C89.8333 92.2284 89.317 92.8302 88.6552 93.2473L88.6546 93.2476C87.9946 93.6658 87.1984 93.8793 86.2546 93.8793C85.3241 93.8793 84.5298 93.6661 83.864 93.2472C83.1962 92.827 82.6754 92.2272 82.3029 91.4357Z" fill="#FFFAFF" stroke="#FFFAFF" stroke-width="0.5"/>
<path d="M53.3818 0H38.3221L28.9707 13.2374H53.3801C69.6043 13.5251 69.6043 37.5294 53.3801 37.817H28.5168L21.1697 24.2818L12.1328 37.0742L32.8466 75.2381H48.8277L35.7008 51.0544H53.3818C87.0865 50.4554 87.0746 0.593932 53.3818 0Z" fill="#5729D8"/>
<path d="M49.2227 58.6363L51.3612 58.0644V60.0086C51.0161 60.1034 50.705 60.1846 50.4279 60.2523C50.1508 60.3183 49.9451 60.3758 49.8108 60.4232L49.2227 58.6363ZM49.3519 64.8667H52.0803V57.8647L52.8129 57.665H53.991V66.6975H49.3535V64.8667H49.3519ZM54.7067 66.6958V64.8667H56.5732V66.6958H54.7067Z" fill="#FFFAFF"/>
<path d="M59.6736 62.2236C59.6736 62.5756 59.7195 62.9174 59.8096 63.2456C59.8997 63.5739 60.0289 63.865 60.1972 64.1171C60.3638 64.3692 60.5627 64.5722 60.7939 64.7245C61.0251 64.8768 61.2817 64.953 61.569 64.953C61.8461 64.953 62.0909 64.8751 62.3017 64.7178C62.5125 64.5604 62.6944 64.354 62.8474 64.0968L64.1546 65.4826C63.83 65.8921 63.4441 66.217 62.9987 66.4539C62.5533 66.6925 62.0586 66.8109 61.5129 66.8109C60.9486 66.8109 60.4386 66.6891 59.9847 66.4471C59.5291 66.2034 59.1398 65.8735 58.8151 65.4538C58.4904 65.0342 58.2389 64.5418 58.0621 63.9749C57.8853 63.4081 57.7969 62.8006 57.7969 62.1525C57.7969 61.1051 58.0162 60.1863 58.4565 59.3944L59.8776 60.9241C59.7416 61.3505 59.6736 61.7853 59.6736 62.2236ZM63.1636 63.3658C63.201 63.271 63.2333 63.161 63.2571 63.0375C63.2809 62.914 63.2996 62.7921 63.3149 62.6737C63.3285 62.5552 63.3387 62.4453 63.3438 62.3454C63.3489 62.2456 63.3506 62.1678 63.3506 62.1102V62.0679C63.3506 61.8784 63.3217 61.6297 63.2639 61.3251C63.2061 61.0205 63.1075 60.7227 62.9698 60.4316C62.8304 60.1406 62.6434 59.8902 62.4105 59.682C62.1776 59.4739 61.8818 59.3673 61.5282 59.3673C61.2512 59.3673 61.0013 59.4452 60.782 59.6025C60.5627 59.7599 60.3706 59.9612 60.2074 60.21L58.8712 58.7801C59.1959 58.3808 59.5818 58.0661 60.0272 57.8376C60.4726 57.6092 60.9673 57.4941 61.5129 57.4941C62.0875 57.4941 62.6043 57.621 63.0633 57.8732C63.5223 58.1253 63.9133 58.4671 64.2328 58.8952C64.5541 59.325 64.8006 59.8191 64.9723 60.3809C65.144 60.9427 65.2307 61.5332 65.2307 62.1525C65.2307 63.1627 65.0114 64.068 64.5711 64.8684L63.1636 63.3658Z" fill="#FFFAFF"/>
<path d="M66.4512 58.6363L68.5897 58.0644V60.0086C68.2446 60.1034 67.9335 60.1846 67.6564 60.2523C67.3793 60.3183 67.1736 60.3758 67.0394 60.4232L66.4512 58.6363ZM66.5804 64.8667H69.3088V57.8647L70.0414 57.665H71.2195V66.6975H66.5821V64.8667H66.5804ZM71.9352 66.6958V64.8667H73.8017V66.6958H71.9352Z" fill="#FFFAFF"/>
<mask id="mask0_876_18848" style="mask-type:luminance" maskUnits="userSpaceOnUse" x="0" y="0" width="38" height="37">
<path d="M15.1737 12.8374H14.5013L14.8221 13.4283L20.1348 23.2135L11.6127 35.2772L0.455122 14.7197L8.02576 0.77208L8.39312 1.32002V0.4H36.2524L27.4678 12.8374H15.1737Z" fill="white" stroke="white" stroke-width="0.8"/>
</mask>
<g mask="url(#mask0_876_18848)">
<path d="M8.0564 -0.317383H-1.53125V36.256H8.0564V-0.317383Z" stroke="#FFFAFF" stroke-width="0.8" stroke-miterlimit="10"/>
<path d="M1.42188 -0.383789V16.8352" stroke="#FFFAFF" stroke-width="0.8" stroke-miterlimit="10"/>
<path d="M7.9901 16.835H-1.53125" stroke="#FFFAFF" stroke-width="0.8" stroke-miterlimit="10"/>
<path d="M7.9901 18.5693H-1.53125" stroke="#FFFAFF" stroke-width="0.8" stroke-miterlimit="10"/>
<path d="M7.9901 20.1709H-1.53125" stroke="#FFFAFF" stroke-width="0.8" stroke-miterlimit="10"/>
<path d="M7.9901 21.9062H-1.53125" stroke="#FFFAFF" stroke-width="0.8" stroke-miterlimit="10"/>
<path d="M6.18024 26.778L3.23047 23.8418L0.280695 26.778L3.23047 29.7142L6.18024 26.778Z" stroke="#FFFAFF" stroke-width="0.8" stroke-miterlimit="10"/>
<path d="M7.9901 31.5176H-1.53125" stroke="#FFFAFF" stroke-width="0.8" stroke-miterlimit="10"/>
<path d="M7.9901 33.9199H-1.53125" stroke="#FFFAFF" stroke-width="0.8" stroke-miterlimit="10"/>
<path d="M6.78423 32.8525H-0.591797V34.8543H6.78423V32.8525Z" stroke="#FFFAFF" stroke-width="0.8" stroke-miterlimit="10"/>
<path d="M-0.190502 2.08466C-0.00554901 2.08466 0.144386 1.93541 0.144386 1.75131C0.144386 1.56721 -0.00554901 1.41797 -0.190502 1.41797C-0.375456 1.41797 -0.525391 1.56721 -0.525391 1.75131C-0.525391 1.93541 -0.375456 2.08466 -0.190502 2.08466Z" stroke="#FFFAFF" stroke-width="0.8" stroke-miterlimit="10"/>
<path d="M-0.190502 4.35419C-0.00554901 4.35419 0.144386 4.20495 0.144386 4.02085C0.144386 3.83674 -0.00554901 3.6875 -0.190502 3.6875C-0.375456 3.6875 -0.525391 3.83674 -0.525391 4.02085C-0.525391 4.20495 -0.375456 4.35419 -0.190502 4.35419Z" stroke="#FFFAFF" stroke-width="0.8" stroke-miterlimit="10"/>
<path d="M-0.190502 6.62372C-0.00554901 6.62372 0.144386 6.47448 0.144386 6.29038C0.144386 6.10628 -0.00554901 5.95703 -0.190502 5.95703C-0.375456 5.95703 -0.525391 6.10628 -0.525391 6.29038C-0.525391 6.47448 -0.375456 6.62372 -0.190502 6.62372Z" stroke="#FFFAFF" stroke-width="0.8" stroke-miterlimit="10"/>
<path d="M-0.190502 6.62372C-0.00554901 6.62372 0.144386 6.47448 0.144386 6.29038C0.144386 6.10628 -0.00554901 5.95703 -0.190502 5.95703C-0.375456 5.95703 -0.525391 6.10628 -0.525391 6.29038C-0.525391 6.47448 -0.375456 6.62372 -0.190502 6.62372Z" stroke="#FFFAFF" stroke-width="0.8" stroke-miterlimit="10"/>
<path d="M-0.190502 8.8913C-0.00554901 8.8913 0.144386 8.74206 0.144386 8.55796C0.144386 8.37385 -0.00554901 8.22461 -0.190502 8.22461C-0.375456 8.22461 -0.525391 8.37385 -0.525391 8.55796C-0.525391 8.74206 -0.375456 8.8913 -0.190502 8.8913Z" stroke="#FFFAFF" stroke-width="0.8" stroke-miterlimit="10"/>
<path d="M-0.190502 11.1608C-0.00554901 11.1608 0.144386 11.0116 0.144386 10.8275C0.144386 10.6434 -0.00554901 10.4941 -0.190502 10.4941C-0.375456 10.4941 -0.525391 10.6434 -0.525391 10.8275C-0.525391 11.0116 -0.375456 11.1608 -0.190502 11.1608Z" stroke="#FFFAFF" stroke-width="0.8" stroke-miterlimit="10"/>
<path d="M-0.190502 13.4313C-0.00554901 13.4313 0.144386 13.2821 0.144386 13.098C0.144386 12.9139 -0.00554901 12.7646 -0.190502 12.7646C-0.375456 12.7646 -0.525391 12.9139 -0.525391 13.098C-0.525391 13.2821 -0.375456 13.4313 -0.190502 13.4313Z" stroke="#FFFAFF" stroke-width="0.8" stroke-miterlimit="10"/>
<path d="M-0.190502 13.4313C-0.00554901 13.4313 0.144386 13.2821 0.144386 13.098C0.144386 12.9139 -0.00554901 12.7646 -0.190502 12.7646C-0.375456 12.7646 -0.525391 12.9139 -0.525391 13.098C-0.525391 13.2821 -0.375456 13.4313 -0.190502 13.4313Z" stroke="#FFFAFF" stroke-width="0.8" stroke-miterlimit="10"/>
<path d="M-0.190502 15.6989C-0.00554901 15.6989 0.144386 15.5497 0.144386 15.3656C0.144386 15.1815 -0.00554901 15.0322 -0.190502 15.0322C-0.375456 15.0322 -0.525391 15.1815 -0.525391 15.3656C-0.525391 15.5497 -0.375456 15.6989 -0.190502 15.6989Z" stroke="#FFFAFF" stroke-width="0.8" stroke-miterlimit="10"/>
<path d="M4.70366 6.3929C5.68664 6.3929 6.4835 5.5997 6.4835 4.62125C6.4835 3.6428 5.68664 2.84961 4.70366 2.84961C3.72069 2.84961 2.92383 3.6428 2.92383 4.62125C2.92383 5.5997 3.72069 6.3929 4.70366 6.3929Z" stroke="#FFFAFF" stroke-width="0.8" stroke-miterlimit="10"/>
<path d="M4.70431 7.82431C6.48155 7.82431 7.92229 6.3902 7.92229 4.62114C7.92229 2.85208 6.48155 1.41797 4.70431 1.41797C2.92707 1.41797 1.48633 2.85208 1.48633 4.62114C1.48633 6.3902 2.92707 7.82431 4.70431 7.82431Z" stroke="#FFFAFF" stroke-width="0.8" stroke-miterlimit="10"/>
<path d="M7.99214 8.95898H1.42188" stroke="#FFFAFF" stroke-width="0.8" stroke-miterlimit="10"/>
<path d="M4.90845 8.95898L1.42188 11.3618" stroke="#FFFAFF" stroke-width="0.8" stroke-miterlimit="10"/>
<path d="M8.06013 9.02539L1.42188 13.4976" stroke="#FFFAFF" stroke-width="0.8" stroke-miterlimit="10"/>
<path d="M8.12643 10.6943L1.42188 15.2326" stroke="#FFFAFF" stroke-width="0.8" stroke-miterlimit="10"/>
<path d="M8.12643 12.5625L1.42188 16.7014" stroke="#FFFAFF" stroke-width="0.8" stroke-miterlimit="10"/>
<path d="M7.98907 14.2979L4.09961 16.8343" stroke="#FFFAFF" stroke-width="0.8" stroke-miterlimit="10"/>
<path d="M8.16235 36.1895H17.75L17.75 -0.383892H8.16235L8.16235 36.1895Z" stroke="#FFFAFF" stroke-width="0.8" stroke-miterlimit="10"/>
<path d="M14.8008 36.257V19.0381" stroke="#FFFAFF" stroke-width="0.8" stroke-miterlimit="10"/>
<path d="M8.22852 19.0381H17.7499" stroke="#FFFAFF" stroke-width="0.8" stroke-miterlimit="10"/>
<path d="M8.22852 17.3047H17.7499" stroke="#FFFAFF" stroke-width="0.8" stroke-miterlimit="10"/>
<path d="M8.22852 15.7012H17.7499" stroke="#FFFAFF" stroke-width="0.8" stroke-miterlimit="10"/>
<path d="M8.22852 13.9668H17.7499" stroke="#FFFAFF" stroke-width="0.8" stroke-miterlimit="10"/>
<path d="M10.0385 9.09603L12.9883 12.0322L15.9381 9.09603L12.9883 6.15984L10.0385 9.09603Z" stroke="#FFFAFF" stroke-width="0.8" stroke-miterlimit="10"/>
<path d="M8.22852 4.35645H17.7499" stroke="#FFFAFF" stroke-width="0.8" stroke-miterlimit="10"/>
<path d="M8.22852 1.95312H17.7499" stroke="#FFFAFF" stroke-width="0.8" stroke-miterlimit="10"/>
<path d="M9.43452 3.02051L16.8105 3.02051V1.01873L9.43452 1.01873V3.02051Z" stroke="#FFFAFF" stroke-width="0.8" stroke-miterlimit="10"/>
<path d="M16.4091 34.4548C16.5941 34.4548 16.744 34.3055 16.744 34.1214C16.744 33.9373 16.5941 33.7881 16.4091 33.7881C16.2242 33.7881 16.0742 33.9373 16.0742 34.1214C16.0742 34.3055 16.2242 34.4548 16.4091 34.4548Z" stroke="#FFFAFF" stroke-width="0.8" stroke-miterlimit="10"/>
<path d="M16.4091 32.1862C16.5941 32.1862 16.744 32.037 16.744 31.8529C16.744 31.6688 16.5941 31.5195 16.4091 31.5195C16.2242 31.5195 16.0742 31.6688 16.0742 31.8529C16.0742 32.037 16.2242 32.1862 16.4091 32.1862Z" stroke="#FFFAFF" stroke-width="0.8" stroke-miterlimit="10"/>
<path d="M16.4091 29.9167C16.5941 29.9167 16.744 29.7674 16.744 29.5833C16.744 29.3992 16.5941 29.25 16.4091 29.25C16.2242 29.25 16.0742 29.3992 16.0742 29.5833C16.0742 29.7674 16.2242 29.9167 16.4091 29.9167Z" stroke="#FFFAFF" stroke-width="0.8" stroke-miterlimit="10"/>
<path d="M16.344 29.5833C16.344 29.5448 16.3749 29.5167 16.4091 29.5167C16.4433 29.5167 16.4742 29.5448 16.4742 29.5833C16.4742 29.6219 16.4433 29.65 16.4091 29.65C16.3749 29.65 16.344 29.6219 16.344 29.5833Z" fill="#FFFAFF" stroke="#FFFAFF" stroke-width="0.8"/>
<path d="M16.344 27.3148C16.344 27.2762 16.3749 27.2481 16.4091 27.2481C16.4433 27.2481 16.4742 27.2762 16.4742 27.3148C16.4742 27.3533 16.4433 27.3814 16.4091 27.3814C16.3749 27.3814 16.344 27.3533 16.344 27.3148Z" fill="#FFFAFF" stroke="#FFFAFF" stroke-width="0.8"/>
<path d="M16.344 25.0443C16.344 25.0057 16.3749 24.9776 16.4091 24.9776C16.4433 24.9776 16.4742 25.0057 16.4742 25.0443C16.4742 25.0828 16.4433 25.1109 16.4091 25.1109C16.3749 25.1109 16.344 25.0828 16.344 25.0443Z" fill="#FFFAFF" stroke="#FFFAFF" stroke-width="0.8"/>
<path d="M16.4091 23.1101C16.5941 23.1101 16.744 22.9608 16.744 22.7767C16.744 22.5926 16.5941 22.4434 16.4091 22.4434C16.2242 22.4434 16.0742 22.5926 16.0742 22.7767C16.0742 22.9608 16.2242 23.1101 16.4091 23.1101Z" stroke="#FFFAFF" stroke-width="0.8" stroke-miterlimit="10"/>
<path d="M16.344 22.7767C16.344 22.7382 16.3749 22.7101 16.4091 22.7101C16.4433 22.7101 16.4742 22.7382 16.4742 22.7767C16.4742 22.8153 16.4433 22.8434 16.4091 22.8434C16.3749 22.8434 16.344 22.8153 16.344 22.7767Z" fill="#FFFAFF" stroke="#FFFAFF" stroke-width="0.8"/>
<path d="M16.344 20.5072C16.344 20.4686 16.3749 20.4405 16.4091 20.4405C16.4433 20.4405 16.4742 20.4686 16.4742 20.5072C16.4742 20.5457 16.4433 20.5738 16.4091 20.5738C16.3749 20.5738 16.344 20.5457 16.344 20.5072Z" fill="#FFFAFF" stroke="#FFFAFF" stroke-width="0.8"/>
<path d="M11.5142 33.0247C12.4972 33.0247 13.294 32.2315 13.294 31.2531C13.294 30.2746 12.4972 29.4814 11.5142 29.4814C10.5312 29.4814 9.73438 30.2746 9.73438 31.2531C9.73438 32.2315 10.5312 33.0247 11.5142 33.0247Z" stroke="#FFFAFF" stroke-width="0.8" stroke-miterlimit="10"/>
<path d="M11.5129 34.4561C13.2901 34.4561 14.7309 33.022 14.7309 31.253C14.7309 29.4839 13.2901 28.0498 11.5129 28.0498C9.73566 28.0498 8.29492 29.4839 8.29492 31.253C8.29492 33.022 9.73566 34.4561 11.5129 34.4561Z" stroke="#FFFAFF" stroke-width="0.8" stroke-miterlimit="10"/>
<path d="M8.22852 26.9131H14.8005" stroke="#FFFAFF" stroke-width="0.8" stroke-miterlimit="10"/>
<path d="M11.3125 26.9135L14.7991 24.5107" stroke="#FFFAFF" stroke-width="0.8" stroke-miterlimit="10"/>
<path d="M8.16211 26.8482L14.8004 22.376" stroke="#FFFAFF" stroke-width="0.8" stroke-miterlimit="10"/>
<path d="M8.09375 25.1799L14.8 20.6416" stroke="#FFFAFF" stroke-width="0.8" stroke-miterlimit="10"/>
<path d="M8.09375 23.3101L14.8 19.1729" stroke="#FFFAFF" stroke-width="0.8" stroke-miterlimit="10"/>
<path d="M8.22852 21.5746L12.118 19.0381" stroke="#FFFAFF" stroke-width="0.8" stroke-miterlimit="10"/>
<path d="M27.3025 -0.317383H17.7148V36.256H27.3025V-0.317383Z" stroke="#FFFAFF" stroke-width="0.8" stroke-miterlimit="10"/>
<path d="M20.668 -0.383789V16.8352" stroke="#FFFAFF" stroke-width="0.8" stroke-miterlimit="10"/>
<path d="M27.2362 16.835H17.7148" stroke="#FFFAFF" stroke-width="0.8" stroke-miterlimit="10"/>
<path d="M27.2362 18.5693H17.7148" stroke="#FFFAFF" stroke-width="0.8" stroke-miterlimit="10"/>
<path d="M27.2362 20.1709H17.7148" stroke="#FFFAFF" stroke-width="0.8" stroke-miterlimit="10"/>
<path d="M27.2362 21.9053H17.7148" stroke="#FFFAFF" stroke-width="0.8" stroke-miterlimit="10"/>
<path d="M25.4263 26.777L22.4766 23.8408L19.5268 26.777L22.4766 29.7132L25.4263 26.777Z" stroke="#FFFAFF" stroke-width="0.8" stroke-miterlimit="10"/>
<path d="M27.2362 31.5176H17.7148" stroke="#FFFAFF" stroke-width="0.8" stroke-miterlimit="10"/>
<path d="M27.2362 33.9199H17.7148" stroke="#FFFAFF" stroke-width="0.8" stroke-miterlimit="10"/>
<path d="M26.0303 32.8525H18.6543V34.8543H26.0303V32.8525Z" stroke="#FFFAFF" stroke-width="0.8" stroke-miterlimit="10"/>
<path d="M18.9905 1.75131C18.9905 1.71276 19.0214 1.68466 19.0556 1.68466C19.0898 1.68466 19.1207 1.71276 19.1207 1.75131C19.1207 1.78987 19.0898 1.81797 19.0556 1.81797C19.0214 1.81797 18.9905 1.78987 18.9905 1.75131Z" fill="#FFFAFF" stroke="#FFFAFF" stroke-width="0.8"/>
<path d="M18.9905 4.02085C18.9905 3.9823 19.0214 3.95419 19.0556 3.95419C19.0898 3.95419 19.1207 3.9823 19.1207 4.02085C19.1207 4.0594 19.0898 4.0875 19.0556 4.0875C19.0214 4.0875 18.9905 4.0594 18.9905 4.02085Z" fill="#FFFAFF" stroke="#FFFAFF" stroke-width="0.8"/>
<path d="M19.0556 6.62372C19.2405 6.62372 19.3905 6.47448 19.3905 6.29038C19.3905 6.10628 19.2405 5.95703 19.0556 5.95703C18.8706 5.95703 18.7207 6.10628 18.7207 6.29038C18.7207 6.47448 18.8706 6.62372 19.0556 6.62372Z" stroke="#FFFAFF" stroke-width="0.8" stroke-miterlimit="10"/>
<path d="M18.9905 6.29038C18.9905 6.25183 19.0214 6.22372 19.0556 6.22372C19.0898 6.22372 19.1207 6.25183 19.1207 6.29038C19.1207 6.32893 19.0898 6.35703 19.0556 6.35703C19.0214 6.35703 18.9905 6.32893 18.9905 6.29038Z" fill="#FFFAFF" stroke="#FFFAFF" stroke-width="0.8"/>
<path d="M18.9905 8.55796C18.9905 8.51941 19.0214 8.4913 19.0556 8.4913C19.0898 8.4913 19.1207 8.51941 19.1207 8.55796C19.1207 8.59651 19.0898 8.62461 19.0556 8.62461C19.0214 8.62461 18.9905 8.59651 18.9905 8.55796Z" fill="#FFFAFF" stroke="#FFFAFF" stroke-width="0.8"/>
<path d="M18.9905 10.8275C18.9905 10.7889 19.0214 10.7608 19.0556 10.7608C19.0898 10.7608 19.1207 10.7889 19.1207 10.8275C19.1207 10.866 19.0898 10.8941 19.0556 10.8941C19.0214 10.8941 18.9905 10.866 18.9905 10.8275Z" fill="#FFFAFF" stroke="#FFFAFF" stroke-width="0.8"/>
<path d="M19.0556 13.4313C19.2405 13.4313 19.3905 13.2821 19.3905 13.098C19.3905 12.9139 19.2405 12.7646 19.0556 12.7646C18.8706 12.7646 18.7207 12.9139 18.7207 13.098C18.7207 13.2821 18.8706 13.4313 19.0556 13.4313Z" stroke="#FFFAFF" stroke-width="0.8" stroke-miterlimit="10"/>
<path d="M18.9905 13.098C18.9905 13.0594 19.0214 13.0313 19.0556 13.0313C19.0898 13.0313 19.1207 13.0594 19.1207 13.098C19.1207 13.1365 19.0898 13.1646 19.0556 13.1646C19.0214 13.1646 18.9905 13.1365 18.9905 13.098Z" fill="#FFFAFF" stroke="#FFFAFF" stroke-width="0.8"/>
<path d="M19.0556 15.6989C19.2405 15.6989 19.3905 15.5497 19.3905 15.3656C19.3905 15.1815 19.2405 15.0322 19.0556 15.0322C18.8706 15.0322 18.7207 15.1815 18.7207 15.3656C18.7207 15.5497 18.8706 15.6989 19.0556 15.6989Z" stroke="#FFFAFF" stroke-width="0.8" stroke-miterlimit="10"/>
<path d="M23.9498 6.3929C24.9327 6.3929 25.7296 5.5997 25.7296 4.62125C25.7296 3.6428 24.9327 2.84961 23.9498 2.84961C22.9668 2.84961 22.1699 3.6428 22.1699 4.62125C22.1699 5.5997 22.9668 6.3929 23.9498 6.3929Z" stroke="#FFFAFF" stroke-width="0.8" stroke-miterlimit="10"/>
<path d="M23.9485 7.82431C25.7257 7.82431 27.1664 6.3902 27.1664 4.62114C27.1664 2.85208 25.7257 1.41797 23.9485 1.41797C22.1712 1.41797 20.7305 2.85208 20.7305 4.62114C20.7305 6.3902 22.1712 7.82431 23.9485 7.82431Z" stroke="#FFFAFF" stroke-width="0.8" stroke-miterlimit="10"/>
<path d="M27.2382 8.95898H20.668" stroke="#FFFAFF" stroke-width="0.8" stroke-miterlimit="10"/>
<path d="M24.1545 8.95898L20.668 11.3618" stroke="#FFFAFF" stroke-width="0.8" stroke-miterlimit="10"/>
<path d="M27.3062 9.02539L20.668 13.4976" stroke="#FFFAFF" stroke-width="0.8" stroke-miterlimit="10"/>
<path d="M27.3725 10.6943L20.668 15.2326" stroke="#FFFAFF" stroke-width="0.8" stroke-miterlimit="10"/>
<path d="M27.3725 12.5625L20.668 16.7014" stroke="#FFFAFF" stroke-width="0.8" stroke-miterlimit="10"/>
<path d="M27.2374 14.2979L23.3496 16.8343" stroke="#FFFAFF" stroke-width="0.8" stroke-miterlimit="10"/>
<path d="M27.4065 36.1895H36.9941L36.9941 -0.383892H27.4065L27.4065 36.1895Z" stroke="#FFFAFF" stroke-width="0.8" stroke-miterlimit="10"/>
<path d="M34.0449 36.257V19.0381" stroke="#FFFAFF" stroke-width="0.8" stroke-miterlimit="10"/>
<path d="M27.4727 19.0381H36.994" stroke="#FFFAFF" stroke-width="0.8" stroke-miterlimit="10"/>
<path d="M27.4727 17.3047H36.994" stroke="#FFFAFF" stroke-width="0.8" stroke-miterlimit="10"/>
<path d="M27.4727 15.7012H36.994" stroke="#FFFAFF" stroke-width="0.8" stroke-miterlimit="10"/>
<path d="M27.4727 13.9668H36.994" stroke="#FFFAFF" stroke-width="0.8" stroke-miterlimit="10"/>
<path d="M29.2826 9.09603L32.2324 12.0322L35.1822 9.09603L32.2324 6.15984L29.2826 9.09603Z" stroke="#FFFAFF" stroke-width="0.8" stroke-miterlimit="10"/>
<path d="M27.4727 4.35645H36.994" stroke="#FFFAFF" stroke-width="0.8" stroke-miterlimit="10"/>
<path d="M27.4727 1.95312H36.994" stroke="#FFFAFF" stroke-width="0.8" stroke-miterlimit="10"/>
<path d="M28.6787 3.02051L36.0547 3.02051V1.01873L28.6787 1.01873V3.02051Z" stroke="#FFFAFF" stroke-width="0.8" stroke-miterlimit="10"/>
<path d="M35.6533 34.4548C35.8382 34.4548 35.9881 34.3055 35.9881 34.1214C35.9881 33.9373 35.8382 33.7881 35.6533 33.7881C35.4683 33.7881 35.3184 33.9373 35.3184 34.1214C35.3184 34.3055 35.4683 34.4548 35.6533 34.4548Z" stroke="#FFFAFF" stroke-width="0.8" stroke-miterlimit="10"/>
<path d="M35.6533 32.1862C35.8382 32.1862 35.9881 32.037 35.9881 31.8529C35.9881 31.6688 35.8382 31.5195 35.6533 31.5195C35.4683 31.5195 35.3184 31.6688 35.3184 31.8529C35.3184 32.037 35.4683 32.1862 35.6533 32.1862Z" stroke="#FFFAFF" stroke-width="0.8" stroke-miterlimit="10"/>
<path d="M35.6533 29.9167C35.8382 29.9167 35.9881 29.7674 35.9881 29.5833C35.9881 29.3992 35.8382 29.25 35.6533 29.25C35.4683 29.25 35.3184 29.3992 35.3184 29.5833C35.3184 29.7674 35.4683 29.9167 35.6533 29.9167Z" stroke="#FFFAFF" stroke-width="0.8" stroke-miterlimit="10"/>
<path d="M35.6533 29.9167C35.8382 29.9167 35.9881 29.7674 35.9881 29.5833C35.9881 29.3992 35.8382 29.25 35.6533 29.25C35.4683 29.25 35.3184 29.3992 35.3184 29.5833C35.3184 29.7674 35.4683 29.9167 35.6533 29.9167Z" stroke="#FFFAFF" stroke-width="0.8" stroke-miterlimit="10"/>
<path d="M35.6533 27.6481C35.8382 27.6481 35.9881 27.4989 35.9881 27.3148C35.9881 27.1307 35.8382 26.9814 35.6533 26.9814C35.4683 26.9814 35.3184 27.1307 35.3184 27.3148C35.3184 27.4989 35.4683 27.6481 35.6533 27.6481Z" stroke="#FFFAFF" stroke-width="0.8" stroke-miterlimit="10"/>
<path d="M35.6533 25.3776C35.8382 25.3776 35.9881 25.2284 35.9881 25.0443C35.9881 24.8602 35.8382 24.7109 35.6533 24.7109C35.4683 24.7109 35.3184 24.8602 35.3184 25.0443C35.3184 25.2284 35.4683 25.3776 35.6533 25.3776Z" stroke="#FFFAFF" stroke-width="0.8" stroke-miterlimit="10"/>
<path d="M35.6533 23.1101C35.8382 23.1101 35.9881 22.9608 35.9881 22.7767C35.9881 22.5926 35.8382 22.4434 35.6533 22.4434C35.4683 22.4434 35.3184 22.5926 35.3184 22.7767C35.3184 22.9608 35.4683 23.1101 35.6533 23.1101Z" stroke="#FFFAFF" stroke-width="0.8" stroke-miterlimit="10"/>
<path d="M35.6533 23.1101C35.8382 23.1101 35.9881 22.9608 35.9881 22.7767C35.9881 22.5926 35.8382 22.4434 35.6533 22.4434C35.4683 22.4434 35.3184 22.5926 35.3184 22.7767C35.3184 22.9608 35.4683 23.1101 35.6533 23.1101Z" stroke="#FFFAFF" stroke-width="0.8" stroke-miterlimit="10"/>
<path d="M35.6533 20.8405C35.8382 20.8405 35.9881 20.6913 35.9881 20.5072C35.9881 20.3231 35.8382 20.1738 35.6533 20.1738C35.4683 20.1738 35.3184 20.3231 35.3184 20.5072C35.3184 20.6913 35.4683 20.8405 35.6533 20.8405Z" stroke="#FFFAFF" stroke-width="0.8" stroke-miterlimit="10"/>
<path d="M30.7584 33.0247C31.7413 33.0247 32.5382 32.2315 32.5382 31.2531C32.5382 30.2746 31.7413 29.4814 30.7584 29.4814C29.7754 29.4814 28.9785 30.2746 28.9785 31.2531C28.9785 32.2315 29.7754 33.0247 30.7584 33.0247Z" stroke="#FFFAFF" stroke-width="0.8" stroke-miterlimit="10"/>
<path d="M30.757 34.4561C32.5343 34.4561 33.975 33.022 33.975 31.253C33.975 29.4839 32.5343 28.0498 30.757 28.0498C28.9798 28.0498 27.5391 29.4839 27.5391 31.253C27.5391 33.022 28.9798 34.4561 30.757 34.4561Z" stroke="#FFFAFF" stroke-width="0.8" stroke-miterlimit="10"/>
<path d="M27.4727 26.9131H34.0446" stroke="#FFFAFF" stroke-width="0.8" stroke-miterlimit="10"/>
<path d="M30.5566 26.9135L34.0432 24.5107" stroke="#FFFAFF" stroke-width="0.8" stroke-miterlimit="10"/>
<path d="M27.4062 26.8482L34.0445 22.376" stroke="#FFFAFF" stroke-width="0.8" stroke-miterlimit="10"/>
<path d="M27.3379 25.1799L34.0442 20.6416" stroke="#FFFAFF" stroke-width="0.8" stroke-miterlimit="10"/>
<path d="M27.3379 23.3101L34.0442 19.1729" stroke="#FFFAFF" stroke-width="0.8" stroke-miterlimit="10"/>
<path d="M27.4727 21.5746L31.3621 19.0381" stroke="#FFFAFF" stroke-width="0.8" stroke-miterlimit="10"/>
</g>
<path d="M18.7935 62.6497L11.545 75.146H7.2832L16.4306 58.2959L18.7935 62.6497Z" fill="#5729D8"/>
<path d="M25.5752 75.1472H12.3242L19.1682 63.3447L25.5752 75.1472Z" fill="#5729D8"/>
</svg>
