<svg width="981" height="1013" viewBox="0 0 981 1013" fill="none" xmlns="http://www.w3.org/2000/svg">
<path d="M99.0584 876.99H98.8084V877.017H54.9531H54.7031V877.267V1009.97V1010.22H54.9531H65.0183H65.2683V1009.97V955.317H99.0584C108.35 955.317 116.371 953.74 123.139 950.576L123.14 950.576C129.906 947.386 135.15 942.905 138.862 937.105L138.863 937.104C142.577 931.273 144.428 924.268 144.428 916.047C144.428 907.959 142.577 901.007 138.862 895.203L138.862 895.202C135.124 889.403 129.88 884.895 123.14 881.732L123.139 881.731C116.371 878.568 108.35 876.99 99.0584 876.99ZM124.286 894.408L124.286 894.408C130.281 899.523 133.276 906.724 133.276 916.047C133.276 925.397 130.254 932.571 124.286 937.686C118.357 942.767 109.644 945.345 98.1069 945.382V945.356H97.8569H65.2683V886.739H97.8569C109.519 886.739 118.315 889.291 124.286 894.408Z" fill="#FFFAFF" stroke="#FFFAFF" stroke-width="0.5"/>
<path d="M217.723 877.24V876.99H217.473H207.408H207.158V877.24V1009.95V1010.2H207.408H217.473H217.723V1009.95V947.481H299.4V1009.95V1010.2H299.65H309.715H309.965V1009.95V877.24V876.99H309.715H299.65H299.4V877.24V937.52H217.723V877.24Z" fill="#FFFAFF" stroke="#FFFAFF" stroke-width="0.5"/>
<path d="M486.978 1010.2H487.348L487.21 1009.85L434.028 877.147L433.965 876.99H433.796H421.915H421.746L421.683 877.147L368.5 1009.85L368.363 1010.2H368.732H379.412H379.581L379.644 1010.04L396.294 968.564H459.417L476.067 1010.04L476.13 1010.2H476.299H486.978ZM400.148 958.815L427.789 887.763L455.615 958.815H400.148Z" fill="#FFFAFF" stroke="#FFFAFF" stroke-width="0.5"/>
<path d="M595.335 876.99H595.085V877.017H545.971H545.721V877.267V1009.97V1010.22H545.971H556.036H556.286V1009.97V952.705H594.107H594.177L594.237 952.669L595.192 952.092C595.24 952.092 595.289 952.092 595.337 952.092L633.813 1010.08L633.887 1010.2H634.021H645.902H646.366L646.111 1009.81L607.4 951.035C615.174 949.594 621.742 946.678 627.105 942.281C635.1 935.723 639.077 926.585 639.077 914.848C639.077 903.111 635.128 893.869 627.215 887.099L627.215 887.098C619.309 880.36 608.673 876.99 595.335 876.99ZM619.656 935.553C614.004 940.325 605.847 942.743 595.149 942.743H556.313V886.739H595.149C605.847 886.739 614.003 889.183 619.655 894.009C625.301 898.829 628.138 905.762 628.138 914.821C628.138 923.907 625.301 930.786 619.656 935.553Z" fill="#FFFAFF" stroke="#FFFAFF" stroke-width="0.5"/>
<path d="M810.301 1010.2H810.67L810.533 1009.85L757.35 877.147L757.287 876.99H757.118H745.237H745.068L745.005 877.147L691.823 1009.85L691.685 1010.2H692.055H702.734H702.903L702.966 1010.04L719.616 968.564H782.739L799.39 1010.04L799.452 1010.2H799.622H810.301ZM723.443 958.815L751.085 887.763L778.911 958.815H723.443Z" fill="#FFFAFF" stroke="#FFFAFF" stroke-width="0.5"/>
<path d="M972.805 980.147L972.805 980.147C977.791 969.897 980.279 957.758 980.279 943.629C980.279 929.501 977.791 917.335 972.805 907.112C967.82 896.863 960.74 888.963 951.566 883.366C942.389 877.768 931.476 874.987 918.811 874.987C906.304 874.987 895.419 877.768 886.163 883.366C876.908 888.963 869.801 896.889 864.816 907.111L864.816 907.112C859.83 917.361 857.342 929.501 857.342 943.629C857.342 957.758 859.83 969.924 864.816 980.147C869.802 990.369 876.909 998.269 886.163 1003.87C895.392 1009.46 906.278 1012.24 918.811 1012.24C931.476 1012.24 942.389 1009.46 951.566 1003.87C960.74 998.295 967.82 990.368 972.805 980.147ZM874.531 975.053L874.531 975.053C870.385 966.272 868.307 955.782 868.307 943.603C868.307 931.45 870.385 920.96 874.531 912.152C878.677 903.342 884.52 896.584 892.059 891.841C899.595 887.099 908.518 884.736 918.811 884.736C929.264 884.736 938.213 887.099 945.668 891.84C953.127 896.583 958.943 903.342 963.09 912.152L963.09 912.152C967.236 920.933 969.314 931.423 969.314 943.603C969.314 955.755 967.236 966.245 963.09 975.053C958.943 983.864 953.153 990.649 945.669 995.365L945.669 995.365C938.186 1000.11 929.237 1002.47 918.811 1002.47C908.518 1002.47 899.595 1000.11 892.059 995.365C884.52 990.621 878.677 983.863 874.531 975.053Z" fill="#FFFAFF" stroke="#FFFAFF" stroke-width="0.5"/>
<path d="M568.665 0H408.24L308.623 141.013H568.647C741.477 144.077 741.477 399.786 568.647 402.85H303.788L225.522 258.665L129.256 394.937L349.911 801.482H520.152L380.316 543.863H568.665C927.708 537.482 927.581 6.32692 568.665 0Z" fill="#5729D8"/>
<path d="M524.334 624.627L547.115 618.534V639.245C543.439 640.255 540.125 641.12 537.173 641.841C534.221 642.544 532.03 643.157 530.6 643.662L524.334 624.627ZM525.71 690.996H554.775V616.407L562.58 614.28H575.129V710.5H525.728V690.996H525.71ZM582.753 710.482V690.996H602.636V710.482H582.753Z" fill="#FFFAFF"/>
<path d="M635.664 662.841C635.664 666.59 636.153 670.231 637.113 673.728C638.072 677.225 639.449 680.326 641.241 683.011C643.016 685.697 645.135 687.86 647.598 689.483C650.06 691.105 652.795 691.916 655.855 691.916C658.807 691.916 661.415 691.087 663.66 689.41C665.906 687.734 667.843 685.535 669.473 682.795L683.399 697.558C679.94 701.92 675.829 705.381 671.085 707.905C666.34 710.446 661.071 711.708 655.258 711.708C649.246 711.708 643.813 710.41 638.978 707.832C634.125 705.237 629.978 701.722 626.519 697.251C623.06 692.781 620.38 687.536 618.497 681.497C616.614 675.459 615.672 668.988 615.672 662.084C615.672 650.926 618.008 641.138 622.698 632.702L637.837 648.998C636.388 653.54 635.664 658.172 635.664 662.841ZM672.841 675.008C673.24 673.999 673.584 672.827 673.837 671.511C674.091 670.195 674.29 668.898 674.453 667.636C674.598 666.374 674.706 665.202 674.761 664.139C674.815 663.075 674.833 662.246 674.833 661.633V661.183C674.833 659.164 674.525 656.514 673.91 653.27C673.294 650.025 672.244 646.852 670.777 643.752C669.292 640.652 667.3 637.984 664.819 635.767C662.338 633.55 659.187 632.414 655.421 632.414C652.469 632.414 649.807 633.243 647.471 634.92C645.135 636.596 643.089 638.741 641.35 641.391L627.117 626.159C630.575 621.905 634.686 618.552 639.431 616.119C644.175 613.686 649.445 612.46 655.258 612.46C661.378 612.46 666.883 613.812 671.773 616.498C676.662 619.183 680.827 622.825 684.232 627.385C687.654 631.963 690.28 637.227 692.109 643.211C693.938 649.196 694.862 655.487 694.862 662.084C694.862 672.845 692.525 682.489 687.835 691.015L672.841 675.008Z" fill="#FFFAFF"/>
<path d="M707.867 624.627L730.648 618.534V639.245C726.972 640.255 723.658 641.12 720.706 641.841C717.755 642.544 715.563 643.157 714.133 643.662L707.867 624.627ZM709.243 690.996H738.308V616.407L746.113 614.28H758.662V710.5H709.262V690.996H709.243ZM766.286 710.482V690.996H786.17V710.482H766.286Z" fill="#FFFAFF"/>
<mask id="mask0_955_3875" style="mask-type:luminance" maskUnits="userSpaceOnUse" x="0" y="0" width="395" height="384">
<path d="M161.639 139.013H158.277L159.881 141.967L217.146 247.441L123.453 380.069L2.27561 156.803L85.2915 3.86039L87.1475 6.62878V2H390.548L293.775 139.013H161.639Z" fill="white" stroke="white" stroke-width="4"/>
</mask>
<g mask="url(#mask0_955_3875)">
<path d="M85.7995 -3.39453H-16.334V386.207H85.7995V-3.39453Z" stroke="#FFFAFF" stroke-width="4" stroke-miterlimit="10"/>
<path d="M15.1348 -4.09668V179.33" stroke="#FFFAFF" stroke-width="4" stroke-miterlimit="10"/>
<path d="M85.0932 179.333H-16.334" stroke="#FFFAFF" stroke-width="4" stroke-miterlimit="10"/>
<path d="M85.0932 197.798H-16.334" stroke="#FFFAFF" stroke-width="4" stroke-miterlimit="10"/>
<path d="M85.0932 214.859H-16.334" stroke="#FFFAFF" stroke-width="4" stroke-miterlimit="10"/>
<path d="M85.0932 233.351H-16.334" stroke="#FFFAFF" stroke-width="4" stroke-miterlimit="10"/>
<path d="M65.8036 285.253L34.3809 253.975L2.95808 285.253L34.3809 316.531L65.8036 285.253Z" stroke="#FFFAFF" stroke-width="4" stroke-miterlimit="10"/>
<path d="M85.0932 335.741H-16.334" stroke="#FFFAFF" stroke-width="4" stroke-miterlimit="10"/>
<path d="M85.0932 361.332H-16.334" stroke="#FFFAFF" stroke-width="4" stroke-miterlimit="10"/>
<path d="M72.2536 349.954H-6.32031V371.278H72.2536V349.954Z" stroke="#FFFAFF" stroke-width="4" stroke-miterlimit="10"/>
<path d="M-2.05171 22.1987C-0.0814729 22.1987 1.51572 20.6088 1.51572 18.6477C1.51572 16.6865 -0.0814729 15.0967 -2.05171 15.0967C-4.02195 15.0967 -5.61914 16.6865 -5.61914 18.6477C-5.61914 20.6088 -4.02195 22.1987 -2.05171 22.1987Z" stroke="#FFFAFF" stroke-width="4" stroke-miterlimit="10"/>
<path d="M-2.05171 46.3725C-0.0814729 46.3725 1.51572 44.7827 1.51572 42.8215C1.51572 40.8603 -0.0814729 39.2705 -2.05171 39.2705C-4.02195 39.2705 -5.61914 40.8603 -5.61914 42.8215C-5.61914 44.7827 -4.02195 46.3725 -2.05171 46.3725Z" stroke="#FFFAFF" stroke-width="4" stroke-miterlimit="10"/>
<path d="M-2.05171 70.5464C-0.0814729 70.5464 1.51572 68.9565 1.51572 66.9953C1.51572 65.0342 -0.0814729 63.4443 -2.05171 63.4443C-4.02195 63.4443 -5.61914 65.0342 -5.61914 66.9953C-5.61914 68.9565 -4.02195 70.5464 -2.05171 70.5464Z" stroke="#FFFAFF" stroke-width="4" stroke-miterlimit="10"/>
<path d="M-2.05171 70.5464C-0.0814729 70.5464 1.51572 68.9565 1.51572 66.9953C1.51572 65.0342 -0.0814729 63.4443 -2.05171 63.4443C-4.02195 63.4443 -5.61914 65.0342 -5.61914 66.9953C-5.61914 68.9565 -4.02195 70.5464 -2.05171 70.5464Z" stroke="#FFFAFF" stroke-width="4" stroke-miterlimit="10"/>
<path d="M-2.05171 94.7075C-0.0814729 94.7075 1.51572 93.1176 1.51572 91.1565C1.51572 89.1953 -0.0814729 87.6055 -2.05171 87.6055C-4.02195 87.6055 -5.61914 89.1953 -5.61914 91.1565C-5.61914 93.1176 -4.02195 94.7075 -2.05171 94.7075Z" stroke="#FFFAFF" stroke-width="4" stroke-miterlimit="10"/>
<path d="M-2.05171 118.881C-0.0814729 118.881 1.51572 117.291 1.51572 115.33C1.51572 113.369 -0.0814729 111.779 -2.05171 111.779C-4.02195 111.779 -5.61914 113.369 -5.61914 115.33C-5.61914 117.291 -4.02195 118.881 -2.05171 118.881Z" stroke="#FFFAFF" stroke-width="4" stroke-miterlimit="10"/>
<path d="M-2.05171 143.068C-0.0814729 143.068 1.51572 141.478 1.51572 139.517C1.51572 137.556 -0.0814729 135.966 -2.05171 135.966C-4.02195 135.966 -5.61914 137.556 -5.61914 139.517C-5.61914 141.478 -4.02195 143.068 -2.05171 143.068Z" stroke="#FFFAFF" stroke-width="4" stroke-miterlimit="10"/>
<path d="M-2.05171 143.068C-0.0814729 143.068 1.51572 141.478 1.51572 139.517C1.51572 137.556 -0.0814729 135.966 -2.05171 135.966C-4.02195 135.966 -5.61914 137.556 -5.61914 139.517C-5.61914 141.478 -4.02195 143.068 -2.05171 143.068Z" stroke="#FFFAFF" stroke-width="4" stroke-miterlimit="10"/>
<path d="M-2.05171 167.229C-0.0814729 167.229 1.51572 165.639 1.51572 163.678C1.51572 161.717 -0.0814729 160.127 -2.05171 160.127C-4.02195 160.127 -5.61914 161.717 -5.61914 163.678C-5.61914 165.639 -4.02195 167.229 -2.05171 167.229Z" stroke="#FFFAFF" stroke-width="4" stroke-miterlimit="10"/>
<path d="M50.0888 68.0948C60.5601 68.0948 69.0487 59.6453 69.0487 49.2222C69.0487 38.7992 60.5601 30.3496 50.0888 30.3496C39.6175 30.3496 31.1289 38.7992 31.1289 49.2222C31.1289 59.6453 39.6175 68.0948 50.0888 68.0948Z" stroke="#FFFAFF" stroke-width="4" stroke-miterlimit="10"/>
<path d="M50.0904 83.3409C69.0227 83.3409 84.3703 68.0639 84.3703 49.2188C84.3703 30.3737 69.0227 15.0967 50.0904 15.0967C31.1582 15.0967 15.8105 30.3737 15.8105 49.2188C15.8105 68.0639 31.1582 83.3409 50.0904 83.3409Z" stroke="#FFFAFF" stroke-width="4" stroke-miterlimit="10"/>
<path d="M85.1252 95.4336H15.1348" stroke="#FFFAFF" stroke-width="4" stroke-miterlimit="10"/>
<path d="M52.2759 95.4336L15.1348 121.03" stroke="#FFFAFF" stroke-width="4" stroke-miterlimit="10"/>
<path d="M85.8495 96.1357L15.1348 143.777" stroke="#FFFAFF" stroke-width="4" stroke-miterlimit="10"/>
<path d="M86.5558 113.911L15.1348 162.255" stroke="#FFFAFF" stroke-width="4" stroke-miterlimit="10"/>
<path d="M86.5558 133.82L15.1348 177.91" stroke="#FFFAFF" stroke-width="4" stroke-miterlimit="10"/>
<path d="M85.0716 152.299L43.6387 179.319" stroke="#FFFAFF" stroke-width="4" stroke-miterlimit="10"/>
<path d="M86.9388 385.507H189.072L189.072 -4.09457H86.9388L86.9388 385.507Z" stroke="#FFFAFF" stroke-width="4" stroke-miterlimit="10"/>
<path d="M157.654 386.219V202.792" stroke="#FFFAFF" stroke-width="4" stroke-miterlimit="10"/>
<path d="M87.6426 202.792H189.07" stroke="#FFFAFF" stroke-width="4" stroke-miterlimit="10"/>
<path d="M87.6426 184.327H189.07" stroke="#FFFAFF" stroke-width="4" stroke-miterlimit="10"/>
<path d="M87.6426 167.253H189.07" stroke="#FFFAFF" stroke-width="4" stroke-miterlimit="10"/>
<path d="M87.6426 148.775H189.07" stroke="#FFFAFF" stroke-width="4" stroke-miterlimit="10"/>
<path d="M106.935 96.8859L138.357 128.164L169.78 96.886L138.357 65.6078L106.935 96.8859Z" stroke="#FFFAFF" stroke-width="4" stroke-miterlimit="10"/>
<path d="M87.6426 46.3975H189.07" stroke="#FFFAFF" stroke-width="4" stroke-miterlimit="10"/>
<path d="M87.6426 20.793H189.07" stroke="#FFFAFF" stroke-width="4" stroke-miterlimit="10"/>
<path d="M100.485 32.1709L179.059 32.1709V10.8468L100.485 10.8468V32.1709Z" stroke="#FFFAFF" stroke-width="4" stroke-miterlimit="10"/>
<path d="M174.798 367.031C176.768 367.031 178.365 365.441 178.365 363.48C178.365 361.519 176.768 359.929 174.798 359.929C172.828 359.929 171.23 361.519 171.23 363.48C171.23 365.441 172.828 367.031 174.798 367.031Z" stroke="#FFFAFF" stroke-width="4" stroke-miterlimit="10"/>
<path d="M174.798 342.857C176.768 342.857 178.365 341.267 178.365 339.306C178.365 337.345 176.768 335.755 174.798 335.755C172.828 335.755 171.23 337.345 171.23 339.306C171.23 341.267 172.828 342.857 174.798 342.857Z" stroke="#FFFAFF" stroke-width="4" stroke-miterlimit="10"/>
<path d="M174.798 318.683C176.768 318.683 178.365 317.093 178.365 315.132C178.365 313.171 176.768 311.581 174.798 311.581C172.828 311.581 171.23 313.171 171.23 315.132C171.23 317.093 172.828 318.683 174.798 318.683Z" stroke="#FFFAFF" stroke-width="4" stroke-miterlimit="10"/>
<path d="M176.365 315.132C176.365 315.98 175.672 316.683 174.798 316.683C173.924 316.683 173.23 315.98 173.23 315.132C173.23 314.284 173.924 313.581 174.798 313.581C175.672 313.581 176.365 314.284 176.365 315.132Z" fill="#FFFAFF" stroke="#FFFAFF" stroke-width="4"/>
<path d="M176.365 290.971C176.365 291.819 175.672 292.522 174.798 292.522C173.924 292.522 173.23 291.819 173.23 290.971C173.23 290.123 173.924 289.42 174.798 289.42C175.672 289.42 176.365 290.123 176.365 290.971Z" fill="#FFFAFF" stroke="#FFFAFF" stroke-width="4"/>
<path d="M176.365 266.784C176.365 267.632 175.672 268.335 174.798 268.335C173.924 268.335 173.23 267.632 173.23 266.784C173.23 265.936 173.923 265.233 174.798 265.233C175.672 265.233 176.365 265.936 176.365 266.784Z" fill="#FFFAFF" stroke="#FFFAFF" stroke-width="4"/>
<path d="M174.798 246.174C176.768 246.174 178.365 244.584 178.365 242.623C178.365 240.662 176.768 239.072 174.798 239.072C172.828 239.072 171.23 240.662 171.23 242.623C171.23 244.584 172.828 246.174 174.798 246.174Z" stroke="#FFFAFF" stroke-width="4" stroke-miterlimit="10"/>
<path d="M176.365 242.623C176.365 243.471 175.672 244.174 174.798 244.174C173.924 244.174 173.23 243.471 173.23 242.623C173.23 241.775 173.924 241.072 174.798 241.072C175.672 241.072 176.365 241.775 176.365 242.623Z" fill="#FFFAFF" stroke="#FFFAFF" stroke-width="4"/>
<path d="M176.365 218.449C176.365 219.297 175.672 220 174.798 220C173.924 220 173.23 219.297 173.23 218.449C173.23 217.602 173.924 216.898 174.798 216.898C175.672 216.898 176.365 217.602 176.365 218.449Z" fill="#FFFAFF" stroke="#FFFAFF" stroke-width="4"/>
<path d="M122.649 351.797C133.121 351.797 141.609 343.347 141.609 332.924C141.609 322.501 133.121 314.052 122.649 314.052C112.178 314.052 103.689 322.501 103.689 332.924C103.689 343.347 112.178 351.797 122.649 351.797Z" stroke="#FFFAFF" stroke-width="4" stroke-miterlimit="10"/>
<path d="M122.626 367.042C141.558 367.042 156.905 351.765 156.905 332.92C156.905 314.075 141.558 298.798 122.626 298.798C103.693 298.798 88.3457 314.075 88.3457 332.92C88.3457 351.765 103.693 367.042 122.626 367.042Z" stroke="#FFFAFF" stroke-width="4" stroke-miterlimit="10"/>
<path d="M87.6426 286.691H157.651" stroke="#FFFAFF" stroke-width="4" stroke-miterlimit="10"/>
<path d="M120.49 286.697L157.631 261.101" stroke="#FFFAFF" stroke-width="4" stroke-miterlimit="10"/>
<path d="M86.9414 285.999L157.656 238.357" stroke="#FFFAFF" stroke-width="4" stroke-miterlimit="10"/>
<path d="M86.2129 268.223L157.652 219.879" stroke="#FFFAFF" stroke-width="4" stroke-miterlimit="10"/>
<path d="M86.2129 248.308L157.652 204.235" stroke="#FFFAFF" stroke-width="4" stroke-miterlimit="10"/>
<path d="M87.6426 229.812L129.075 202.792" stroke="#FFFAFF" stroke-width="4" stroke-miterlimit="10"/>
<path d="M290.815 -3.39453H188.682V386.207H290.815V-3.39453Z" stroke="#FFFAFF" stroke-width="4" stroke-miterlimit="10"/>
<path d="M220.15 -4.09668V179.33" stroke="#FFFAFF" stroke-width="4" stroke-miterlimit="10"/>
<path d="M290.109 179.333H188.682" stroke="#FFFAFF" stroke-width="4" stroke-miterlimit="10"/>
<path d="M290.109 197.798H188.682" stroke="#FFFAFF" stroke-width="4" stroke-miterlimit="10"/>
<path d="M290.109 214.859H188.682" stroke="#FFFAFF" stroke-width="4" stroke-miterlimit="10"/>
<path d="M290.109 233.337H188.682" stroke="#FFFAFF" stroke-width="4" stroke-miterlimit="10"/>
<path d="M270.819 285.239L239.396 253.961L207.974 285.239L239.396 316.517L270.819 285.239Z" stroke="#FFFAFF" stroke-width="4" stroke-miterlimit="10"/>
<path d="M290.109 335.741H188.682" stroke="#FFFAFF" stroke-width="4" stroke-miterlimit="10"/>
<path d="M290.109 361.332H188.682" stroke="#FFFAFF" stroke-width="4" stroke-miterlimit="10"/>
<path d="M277.269 349.954H198.695V371.278H277.269V349.954Z" stroke="#FFFAFF" stroke-width="4" stroke-miterlimit="10"/>
<path d="M204.531 18.6477C204.531 19.4956 203.838 20.1987 202.964 20.1987C202.09 20.1987 201.396 19.4956 201.396 18.6477C201.396 17.7998 202.09 17.0967 202.964 17.0967C203.838 17.0967 204.531 17.7998 204.531 18.6477Z" fill="#FFFAFF" stroke="#FFFAFF" stroke-width="4"/>
<path d="M204.531 42.8215C204.531 43.6694 203.838 44.3725 202.964 44.3725C202.09 44.3725 201.396 43.6694 201.396 42.8215C201.396 41.9736 202.09 41.2705 202.964 41.2705C203.838 41.2705 204.531 41.9736 204.531 42.8215Z" fill="#FFFAFF" stroke="#FFFAFF" stroke-width="4"/>
<path d="M202.964 70.5464C204.934 70.5464 206.531 68.9565 206.531 66.9953C206.531 65.0342 204.934 63.4443 202.964 63.4443C200.994 63.4443 199.396 65.0342 199.396 66.9953C199.396 68.9565 200.994 70.5464 202.964 70.5464Z" stroke="#FFFAFF" stroke-width="4" stroke-miterlimit="10"/>
<path d="M204.531 66.9953C204.531 67.8433 203.838 68.5464 202.964 68.5464C202.09 68.5464 201.396 67.8433 201.396 66.9953C201.396 66.1474 202.09 65.4443 202.964 65.4443C203.838 65.4443 204.531 66.1474 204.531 66.9953Z" fill="#FFFAFF" stroke="#FFFAFF" stroke-width="4"/>
<path d="M204.531 91.1565C204.531 92.0044 203.838 92.7075 202.964 92.7075C202.09 92.7075 201.396 92.0044 201.396 91.1565C201.396 90.3086 202.09 89.6055 202.964 89.6055C203.838 89.6055 204.531 90.3086 204.531 91.1565Z" fill="#FFFAFF" stroke="#FFFAFF" stroke-width="4"/>
<path d="M204.531 115.33C204.531 116.178 203.838 116.881 202.964 116.881C202.09 116.881 201.396 116.178 201.396 115.33C201.396 114.482 202.09 113.779 202.964 113.779C203.838 113.779 204.531 114.482 204.531 115.33Z" fill="#FFFAFF" stroke="#FFFAFF" stroke-width="4"/>
<path d="M202.964 143.068C204.934 143.068 206.531 141.478 206.531 139.517C206.531 137.556 204.934 135.966 202.964 135.966C200.994 135.966 199.396 137.556 199.396 139.517C199.396 141.478 200.994 143.068 202.964 143.068Z" stroke="#FFFAFF" stroke-width="4" stroke-miterlimit="10"/>
<path d="M204.531 139.517C204.531 140.365 203.838 141.068 202.964 141.068C202.09 141.068 201.396 140.365 201.396 139.517C201.396 138.669 202.09 137.966 202.964 137.966C203.838 137.966 204.531 138.669 204.531 139.517Z" fill="#FFFAFF" stroke="#FFFAFF" stroke-width="4"/>
<path d="M202.964 167.229C204.934 167.229 206.531 165.639 206.531 163.678C206.531 161.717 204.934 160.127 202.964 160.127C200.994 160.127 199.396 161.717 199.396 163.678C199.396 165.639 200.994 167.229 202.964 167.229Z" stroke="#FFFAFF" stroke-width="4" stroke-miterlimit="10"/>
<path d="M255.104 68.0948C265.576 68.0948 274.064 59.6453 274.064 49.2222C274.064 38.7992 265.576 30.3496 255.104 30.3496C244.633 30.3496 236.145 38.7992 236.145 49.2222C236.145 59.6453 244.633 68.0948 255.104 68.0948Z" stroke="#FFFAFF" stroke-width="4" stroke-miterlimit="10"/>
<path d="M255.081 83.3409C274.013 83.3409 289.361 68.0639 289.361 49.2188C289.361 30.3737 274.013 15.0967 255.081 15.0967C236.148 15.0967 220.801 30.3737 220.801 49.2188C220.801 68.0639 236.148 83.3409 255.081 83.3409Z" stroke="#FFFAFF" stroke-width="4" stroke-miterlimit="10"/>
<path d="M290.141 95.4336H220.15" stroke="#FFFAFF" stroke-width="4" stroke-miterlimit="10"/>
<path d="M257.292 95.4336L220.15 121.03" stroke="#FFFAFF" stroke-width="4" stroke-miterlimit="10"/>
<path d="M290.865 96.1357L220.15 143.777" stroke="#FFFAFF" stroke-width="4" stroke-miterlimit="10"/>
<path d="M291.571 113.911L220.15 162.255" stroke="#FFFAFF" stroke-width="4" stroke-miterlimit="10"/>
<path d="M291.571 133.82L220.15 177.91" stroke="#FFFAFF" stroke-width="4" stroke-miterlimit="10"/>
<path d="M290.122 152.299L248.707 179.319" stroke="#FFFAFF" stroke-width="4" stroke-miterlimit="10"/>
<path d="M291.929 385.507H394.062L394.063 -4.09457H291.929L291.929 385.507Z" stroke="#FFFAFF" stroke-width="4" stroke-miterlimit="10"/>
<path d="M362.645 386.219V202.792" stroke="#FFFAFF" stroke-width="4" stroke-miterlimit="10"/>
<path d="M292.633 202.792H394.06" stroke="#FFFAFF" stroke-width="4" stroke-miterlimit="10"/>
<path d="M292.633 184.327H394.06" stroke="#FFFAFF" stroke-width="4" stroke-miterlimit="10"/>
<path d="M292.633 167.253H394.06" stroke="#FFFAFF" stroke-width="4" stroke-miterlimit="10"/>
<path d="M292.633 148.775H394.06" stroke="#FFFAFF" stroke-width="4" stroke-miterlimit="10"/>
<path d="M311.925 96.8859L343.348 128.164L374.77 96.886L343.348 65.6078L311.925 96.8859Z" stroke="#FFFAFF" stroke-width="4" stroke-miterlimit="10"/>
<path d="M292.633 46.3975H394.06" stroke="#FFFAFF" stroke-width="4" stroke-miterlimit="10"/>
<path d="M292.633 20.793H394.06" stroke="#FFFAFF" stroke-width="4" stroke-miterlimit="10"/>
<path d="M305.475 32.1709L384.049 32.1709V10.8468L305.475 10.8468V32.1709Z" stroke="#FFFAFF" stroke-width="4" stroke-miterlimit="10"/>
<path d="M379.788 367.031C381.758 367.031 383.356 365.441 383.356 363.48C383.356 361.519 381.758 359.929 379.788 359.929C377.818 359.929 376.221 361.519 376.221 363.48C376.221 365.441 377.818 367.031 379.788 367.031Z" stroke="#FFFAFF" stroke-width="4" stroke-miterlimit="10"/>
<path d="M379.788 342.857C381.758 342.857 383.356 341.267 383.356 339.306C383.356 337.345 381.758 335.755 379.788 335.755C377.818 335.755 376.221 337.345 376.221 339.306C376.221 341.267 377.818 342.857 379.788 342.857Z" stroke="#FFFAFF" stroke-width="4" stroke-miterlimit="10"/>
<path d="M379.788 318.683C381.758 318.683 383.356 317.093 383.356 315.132C383.356 313.171 381.758 311.581 379.788 311.581C377.818 311.581 376.221 313.171 376.221 315.132C376.221 317.093 377.818 318.683 379.788 318.683Z" stroke="#FFFAFF" stroke-width="4" stroke-miterlimit="10"/>
<path d="M379.788 318.683C381.758 318.683 383.356 317.093 383.356 315.132C383.356 313.171 381.758 311.581 379.788 311.581C377.818 311.581 376.221 313.171 376.221 315.132C376.221 317.093 377.818 318.683 379.788 318.683Z" stroke="#FFFAFF" stroke-width="4" stroke-miterlimit="10"/>
<path d="M379.788 294.522C381.758 294.522 383.356 292.932 383.356 290.971C383.356 289.01 381.758 287.42 379.788 287.42C377.818 287.42 376.221 289.01 376.221 290.971C376.221 292.932 377.818 294.522 379.788 294.522Z" stroke="#FFFAFF" stroke-width="4" stroke-miterlimit="10"/>
<path d="M379.788 270.335C381.758 270.335 383.356 268.746 383.356 266.784C383.356 264.823 381.758 263.233 379.788 263.233C377.818 263.233 376.221 264.823 376.221 266.784C376.221 268.746 377.818 270.335 379.788 270.335Z" stroke="#FFFAFF" stroke-width="4" stroke-miterlimit="10"/>
<path d="M379.788 246.174C381.758 246.174 383.356 244.584 383.356 242.623C383.356 240.662 381.758 239.072 379.788 239.072C377.818 239.072 376.221 240.662 376.221 242.623C376.221 244.584 377.818 246.174 379.788 246.174Z" stroke="#FFFAFF" stroke-width="4" stroke-miterlimit="10"/>
<path d="M379.788 246.174C381.758 246.174 383.356 244.584 383.356 242.623C383.356 240.662 381.758 239.072 379.788 239.072C377.818 239.072 376.221 240.662 376.221 242.623C376.221 244.584 377.818 246.174 379.788 246.174Z" stroke="#FFFAFF" stroke-width="4" stroke-miterlimit="10"/>
<path d="M379.788 222C381.758 222 383.356 220.411 383.356 218.449C383.356 216.488 381.758 214.898 379.788 214.898C377.818 214.898 376.221 216.488 376.221 218.449C376.221 220.411 377.818 222 379.788 222Z" stroke="#FFFAFF" stroke-width="4" stroke-miterlimit="10"/>
<path d="M327.64 351.797C338.111 351.797 346.599 343.347 346.599 332.924C346.599 322.501 338.111 314.052 327.64 314.052C317.168 314.052 308.68 322.501 308.68 332.924C308.68 343.347 317.168 351.797 327.64 351.797Z" stroke="#FFFAFF" stroke-width="4" stroke-miterlimit="10"/>
<path d="M327.616 367.042C346.548 367.042 361.896 351.765 361.896 332.92C361.896 314.075 346.548 298.798 327.616 298.798C308.684 298.798 293.336 314.075 293.336 332.92C293.336 351.765 308.684 367.042 327.616 367.042Z" stroke="#FFFAFF" stroke-width="4" stroke-miterlimit="10"/>
<path d="M292.633 286.691H362.641" stroke="#FFFAFF" stroke-width="4" stroke-miterlimit="10"/>
<path d="M325.48 286.697L362.622 261.101" stroke="#FFFAFF" stroke-width="4" stroke-miterlimit="10"/>
<path d="M291.932 285.999L362.646 238.357" stroke="#FFFAFF" stroke-width="4" stroke-miterlimit="10"/>
<path d="M291.203 268.223L362.642 219.879" stroke="#FFFAFF" stroke-width="4" stroke-miterlimit="10"/>
<path d="M291.203 248.308L362.642 204.235" stroke="#FFFAFF" stroke-width="4" stroke-miterlimit="10"/>
<path d="M292.633 229.812L334.066 202.792" stroke="#FFFAFF" stroke-width="4" stroke-miterlimit="10"/>
</g>
<path d="M200.195 667.382L122.979 800.5H77.5801L175.023 621.003L200.195 667.382Z" fill="#5729D8"/>
<path d="M272.443 800.513H131.285L204.191 674.786L272.443 800.513Z" fill="#5729D8"/>
</svg>
